<?xml version="1.0" encoding="utf-8"?>
<!-- Generator: Adobe Illustrator 25.3.1, SVG Export Plug-In . SVG Version: 6.00 Build 0)  -->
<svg version="1.1" id="Capa_1" xmlns="http://www.w3.org/2000/svg" xmlns:xlink="http://www.w3.org/1999/xlink" x="0px" y="0px"
	 viewBox="0 0 71.4 71.4" style="enable-background:new 0 0 71.4 71.4;" xml:space="preserve">
<style type="text/css">
	.st0{fill:#EF7B73;}
	.st1{fill:#EED8D6;}
	.st2{fill:#E4E8E6;}
	.st3{fill:#020203;}
	.st4{fill:#EE7A73;}
	.st5{fill:#6C95C5;}
	.st6{fill:#F6D387;}
	.st7{fill:#EDD7D5;}
	.st8{fill:#F77C72;}
	.st9{fill:#F5C14C;}
	.st10{fill:none;}
</style>
<g>
	<g>
		<g>
			<path class="st8" d="M15.23,55.36h-1.62l-0.25,0.75h-1.34l1.67-4.58h1.47l1.66,4.58h-1.34L15.23,55.36z M14.91,54.39l-0.49-1.48
				l-0.49,1.48H14.91z"/>
			<path class="st8" d="M19.81,55.13h1.42v0.97h-2.7v-4.58h1.27V55.13z"/>
			<path class="st8" d="M26.13,51.53v1.01H24.3v0.81h1.35v0.97H24.3v1.79h-1.27v-4.58H26.13z"/>
			<path class="st8" d="M30.86,55.36h-1.62l-0.25,0.75h-1.34l1.67-4.58h1.47l1.66,4.58h-1.34L30.86,55.36z M30.54,54.39l-0.49-1.48
				l-0.49,1.48H30.54z"/>
			<path class="st8" d="M37.2,51.53v3.03c0,0.51-0.14,0.91-0.42,1.18c-0.28,0.27-0.66,0.41-1.15,0.41c-0.52,0-0.93-0.14-1.24-0.43
				c-0.31-0.29-0.46-0.71-0.46-1.25h1.26c0,0.36,0.14,0.54,0.4,0.54c0.23,0,0.35-0.15,0.35-0.44v-3.03H37.2z"/>
			<path class="st8" d="M40.27,55.85c-0.36-0.2-0.64-0.48-0.85-0.84c-0.21-0.36-0.31-0.76-0.31-1.21c0-0.45,0.1-0.85,0.31-1.21
				c0.21-0.36,0.49-0.64,0.85-0.84c0.36-0.2,0.75-0.3,1.18-0.3c0.43,0,0.83,0.1,1.19,0.3c0.36,0.2,0.64,0.48,0.85,0.84
				c0.21,0.36,0.31,0.76,0.31,1.21c0,0.45-0.1,0.85-0.31,1.21c-0.21,0.36-0.49,0.64-0.85,0.84c-0.36,0.2-0.75,0.3-1.18,0.3
				S40.63,56.05,40.27,55.85z M42.22,54.65c0.19-0.21,0.28-0.5,0.28-0.85c0-0.36-0.09-0.65-0.28-0.86
				c-0.19-0.21-0.44-0.31-0.77-0.31c-0.33,0-0.59,0.1-0.77,0.31c-0.19,0.21-0.28,0.5-0.28,0.86c0,0.36,0.09,0.64,0.28,0.85
				c0.19,0.21,0.44,0.31,0.77,0.31C41.78,54.97,42.04,54.86,42.22,54.65z"/>
			<path class="st8" d="M47.99,56.11l-0.91-1.69h-0.14v1.69h-1.27v-4.58h2.01c0.37,0,0.68,0.06,0.94,0.19
				c0.26,0.13,0.45,0.3,0.58,0.53c0.13,0.22,0.2,0.47,0.2,0.75c0,0.31-0.09,0.59-0.26,0.82c-0.17,0.24-0.42,0.4-0.75,0.5l1.03,1.79
				H47.99z M46.94,53.55h0.63c0.17,0,0.3-0.04,0.39-0.12c0.09-0.08,0.13-0.2,0.13-0.36c0-0.15-0.04-0.26-0.13-0.35
				c-0.09-0.08-0.22-0.13-0.39-0.13h-0.63V53.55z"/>
			<path class="st8" d="M52.53,52.55v0.75h1.46v0.97h-1.46v0.83h1.66v1.02h-2.93v-4.58h2.93v1.02H52.53z"/>
			<path class="st8" d="M56.53,55.77c-0.34-0.25-0.53-0.62-0.55-1.09h1.36c0.01,0.16,0.06,0.28,0.14,0.35
				c0.08,0.07,0.19,0.11,0.32,0.11c0.12,0,0.21-0.03,0.29-0.09c0.08-0.06,0.11-0.14,0.11-0.24c0-0.13-0.06-0.24-0.19-0.31
				c-0.13-0.07-0.33-0.16-0.61-0.25c-0.3-0.1-0.54-0.2-0.72-0.29c-0.18-0.09-0.34-0.23-0.48-0.41c-0.14-0.18-0.2-0.41-0.2-0.7
				c0-0.29,0.07-0.55,0.22-0.76s0.35-0.37,0.61-0.48c0.26-0.11,0.55-0.16,0.88-0.16c0.53,0,0.96,0.12,1.28,0.37
				c0.32,0.25,0.49,0.6,0.51,1.05h-1.38c0-0.14-0.05-0.24-0.13-0.31c-0.08-0.07-0.18-0.1-0.31-0.1c-0.1,0-0.17,0.03-0.23,0.08
				c-0.06,0.06-0.09,0.14-0.09,0.24c0,0.09,0.03,0.16,0.1,0.22c0.07,0.06,0.15,0.12,0.25,0.16c0.1,0.05,0.25,0.1,0.44,0.17
				c0.29,0.1,0.53,0.2,0.72,0.3c0.19,0.1,0.35,0.23,0.49,0.41c0.14,0.18,0.2,0.4,0.2,0.67c0,0.27-0.07,0.52-0.2,0.73
				c-0.14,0.22-0.33,0.39-0.59,0.51c-0.26,0.13-0.56,0.19-0.91,0.19C57.31,56.15,56.88,56.03,56.53,55.77z"/>
		</g>
	</g>
	<g>
		<path class="st1" d="M21.9,32.49c1.35,7.44,8.62,12.48,16.05,11.13c7.44-1.35,12.48-8.62,11.13-16.05L21.9,32.49z"/>
		<path class="st9" d="M49.01,27.21c-1.35-7.44-8.62-12.48-16.05-11.13c-7.44,1.35-12.48,8.62-11.13,16.05L49.01,27.21z"/>
		<path class="st9" d="M22.56,33.01c1.35,7.44,8.62,12.48,16.05,11.13c7.44-1.35,12.48-8.62,11.13-16.05L22.56,33.01z"/>
		<path class="st1" d="M49.54,26.62c-1.35-7.44-8.62-12.48-16.05-11.13c-7.44,1.35-12.48,8.62-11.13,16.05L49.54,26.62z"/>
	</g>
</g>
<rect x="0.12" y="0.09" class="st10" width="71.33" height="71.24"/>
</svg>
