<?xml version="1.0" encoding="utf-8"?>
<!-- Generator: Adobe Illustrator 25.3.1, SVG Export Plug-In . SVG Version: 6.00 Build 0)  -->
<svg version="1.1" id="Capa_1" xmlns="http://www.w3.org/2000/svg" xmlns:xlink="http://www.w3.org/1999/xlink" x="0px" y="0px"
	 viewBox="0 0 71.4 71.4" style="enable-background:new 0 0 71.4 71.4;" xml:space="preserve">
<style type="text/css">
	.st0{fill:#EF7B73;}
	.st1{fill:#EED8D6;}
	.st2{fill:#E4E8E6;}
	.st3{fill:#020203;}
	.st4{fill:#EE7A73;}
	.st5{fill:#6C95C5;}
	.st6{fill:#F6D387;}
	.st7{fill:#EDD7D5;}
	.st8{fill:none;}
</style>
<g>
	<g>
		<g>
			<path class="st0" d="M16.37,52.16c0.2-0.37,0.48-0.67,0.85-0.87c0.37-0.21,0.79-0.31,1.27-0.31c0.61,0,1.11,0.16,1.53,0.48
				c0.41,0.32,0.68,0.76,0.8,1.32h-1.46c-0.09-0.18-0.21-0.32-0.36-0.42s-0.33-0.15-0.53-0.15c-0.31,0-0.56,0.11-0.75,0.33
				c-0.19,0.22-0.28,0.52-0.28,0.89c0,0.38,0.09,0.68,0.28,0.9c0.19,0.22,0.43,0.33,0.75,0.33c0.2,0,0.38-0.05,0.53-0.14
				c0.15-0.1,0.27-0.24,0.36-0.42h1.45c-0.12,0.55-0.39,0.99-0.8,1.32c-0.41,0.32-0.92,0.49-1.53,0.49c-0.48,0-0.9-0.1-1.27-0.31
				c-0.37-0.21-0.65-0.5-0.85-0.87c-0.2-0.37-0.3-0.8-0.3-1.28C16.08,52.96,16.17,52.54,16.37,52.16z"/>
			<path class="st0" d="M23.91,55.6c-0.38-0.21-0.68-0.51-0.9-0.89s-0.33-0.81-0.33-1.28s0.11-0.91,0.33-1.28
				c0.22-0.38,0.52-0.67,0.9-0.88c0.38-0.21,0.8-0.32,1.25-0.32c0.46,0,0.88,0.11,1.26,0.32c0.38,0.21,0.68,0.51,0.9,0.88
				c0.22,0.38,0.33,0.81,0.33,1.28s-0.11,0.9-0.33,1.28c-0.22,0.38-0.52,0.67-0.9,0.89c-0.38,0.21-0.8,0.32-1.25,0.32
				C24.7,55.92,24.29,55.82,23.91,55.6z M25.97,54.33c0.2-0.22,0.3-0.53,0.3-0.9c0-0.39-0.1-0.69-0.3-0.91
				c-0.2-0.22-0.47-0.33-0.82-0.33c-0.35,0-0.62,0.11-0.82,0.33c-0.2,0.22-0.3,0.53-0.3,0.91s0.1,0.68,0.3,0.9
				c0.2,0.22,0.47,0.33,0.82,0.33C25.5,54.67,25.77,54.56,25.97,54.33z"/>
			<path class="st0" d="M30.7,55.6c-0.38-0.21-0.68-0.51-0.9-0.89s-0.33-0.81-0.33-1.28s0.11-0.91,0.33-1.28
				c0.22-0.38,0.52-0.67,0.9-0.88c0.38-0.21,0.8-0.32,1.25-0.32c0.46,0,0.88,0.11,1.26,0.32c0.38,0.21,0.68,0.51,0.9,0.88
				c0.22,0.38,0.33,0.81,0.33,1.28s-0.11,0.9-0.33,1.28c-0.22,0.38-0.52,0.67-0.9,0.89c-0.38,0.21-0.8,0.32-1.25,0.32
				C31.49,55.92,31.08,55.82,30.7,55.6z M32.76,54.33c0.2-0.22,0.3-0.53,0.3-0.9c0-0.39-0.1-0.69-0.3-0.91
				c-0.2-0.22-0.47-0.33-0.82-0.33s-0.62,0.11-0.82,0.33c-0.2,0.22-0.3,0.53-0.3,0.91s0.1,0.68,0.3,0.9
				c0.2,0.22,0.47,0.33,0.82,0.33C32.29,54.67,32.56,54.56,32.76,54.33z"/>
			<path class="st0" d="M39.28,55.87l-1.52-2.13v2.13h-1.35v-4.85h1.35v2.09l1.51-2.09h1.56l-1.78,2.35l1.87,2.5H39.28z"/>
			<path class="st0" d="M44.13,51.02v4.85h-1.35v-4.85H44.13z"/>
			<path class="st0" d="M47.63,52.1v0.79h1.55v1.03h-1.55v0.87h1.75v1.08h-3.1v-4.85h3.1v1.08C49.38,52.1,47.63,52.1,47.63,52.1z"/>
			<path class="st0" d="M51.87,55.52c-0.36-0.27-0.56-0.65-0.58-1.15h1.44c0.01,0.17,0.06,0.29,0.15,0.37
				c0.09,0.08,0.2,0.12,0.34,0.12c0.12,0,0.23-0.03,0.31-0.09s0.12-0.15,0.12-0.26c0-0.14-0.07-0.25-0.2-0.33s-0.35-0.17-0.65-0.26
				c-0.33-0.11-0.58-0.21-0.78-0.31c-0.2-0.1-0.36-0.24-0.51-0.43c-0.14-0.19-0.22-0.44-0.22-0.75s0.08-0.58,0.23-0.8
				c0.16-0.22,0.37-0.39,0.65-0.51c0.28-0.11,0.59-0.17,0.94-0.17c0.56,0,1.01,0.13,1.35,0.4c0.34,0.26,0.52,0.63,0.54,1.11h-1.47
				c0-0.15-0.05-0.26-0.13-0.33c-0.08-0.07-0.19-0.11-0.33-0.11c-0.1,0-0.18,0.03-0.25,0.09c-0.06,0.06-0.1,0.14-0.1,0.25
				c0,0.09,0.04,0.17,0.11,0.24c0.07,0.07,0.16,0.12,0.26,0.17c0.11,0.05,0.26,0.11,0.47,0.18c0.31,0.11,0.56,0.21,0.76,0.31
				c0.2,0.1,0.37,0.25,0.52,0.43c0.14,0.19,0.22,0.42,0.22,0.71s-0.07,0.55-0.22,0.78c-0.14,0.23-0.35,0.41-0.63,0.54
				c-0.27,0.13-0.6,0.2-0.97,0.2C52.69,55.92,52.23,55.79,51.87,55.52z"/>
		</g>
	</g>
	<g>
		<path class="st1" d="M20.71,32.3c1.38,7.64,8.85,12.82,16.5,11.44c7.64-1.38,12.82-8.85,11.44-16.5L20.71,32.3z"/>
		<path class="st2" d="M50.41,26.87c-1.38-7.64-8.85-12.82-16.5-11.44c-7.64,1.38-12.82,8.85-11.44,16.5L50.41,26.87z"/>
		<g>
			<g>
				<path class="st3" d="M40.24,21.02c0.45,0,0.45-0.7,0-0.7C39.78,20.32,39.78,21.02,40.24,21.02L40.24,21.02z"/>
			</g>
		</g>
		<g>
			<g>
				<path class="st3" d="M36.87,22.26c0.1,0.23,0.2,0.45,0.3,0.68c0.03,0.08,0.13,0.14,0.21,0.16c0.08,0.02,0.2,0.01,0.27-0.04
					c0.07-0.05,0.14-0.12,0.16-0.21c0-0.03,0.01-0.06,0.01-0.09c0-0.06-0.02-0.12-0.05-0.18c-0.1-0.23-0.2-0.45-0.3-0.68
					c-0.03-0.08-0.13-0.14-0.21-0.16c-0.08-0.02-0.2-0.01-0.27,0.04c-0.07,0.05-0.14,0.12-0.16,0.21c0,0.03-0.01,0.06-0.01,0.09
					C36.82,22.15,36.84,22.21,36.87,22.26L36.87,22.26z"/>
			</g>
		</g>
		<g>
			<g>
				<path class="st3" d="M31.84,26.01c0.09,0.04,0.2,0.03,0.3,0.01c0.1-0.02,0.18-0.08,0.26-0.14c0.02-0.01,0.03-0.03,0.04-0.04
					c0.03-0.04,0.06-0.08,0.09-0.12c0.05-0.09,0.08-0.19,0.07-0.29c0-0.1-0.03-0.2-0.08-0.28c-0.05-0.07-0.11-0.14-0.2-0.18
					c-0.1-0.04-0.18-0.07-0.28-0.07c-0.05,0-0.1,0.01-0.14,0.02c-0.02,0-0.03,0.01-0.05,0.01c-0.09,0.03-0.18,0.08-0.25,0.15
					c-0.06,0.07-0.12,0.16-0.14,0.25c-0.01,0.05-0.02,0.09-0.01,0.14c0,0.05,0.02,0.09,0.04,0.13c0.02,0.04,0.05,0.07,0.09,0.1
					c0.03,0.03,0.07,0.05,0.12,0.06c0.09,0.02,0.19,0.02,0.27-0.04c0.02-0.02,0.05-0.04,0.07-0.05c0.04-0.04,0.07-0.1,0.09-0.15
					c0-0.01,0.01-0.03,0.01-0.04c-0.01,0.03-0.02,0.06-0.04,0.08c0.01-0.01,0.01-0.03,0.02-0.04c-0.02,0.02-0.04,0.05-0.05,0.07
					c0.01-0.01,0.02-0.03,0.04-0.04c-0.02,0.02-0.05,0.04-0.07,0.05c0.02-0.01,0.04-0.02,0.06-0.03c-0.03,0.01-0.06,0.02-0.08,0.04
					c0.02-0.01,0.05-0.02,0.07-0.02c-0.03,0-0.06,0.01-0.09,0.01c0.02,0,0.05,0,0.07,0c-0.03,0-0.06-0.01-0.09-0.01
					c0.02,0,0.04,0.01,0.06,0.02c-0.03-0.01-0.06-0.02-0.08-0.04c0.02,0.01,0.03,0.02,0.04,0.03c-0.02-0.02-0.05-0.04-0.07-0.05
					c0.01,0.01,0.02,0.02,0.03,0.03c-0.02-0.02-0.04-0.05-0.05-0.07c0.01,0.01,0.02,0.03,0.02,0.04c-0.01-0.03-0.02-0.06-0.04-0.08
					c0.01,0.01,0.01,0.03,0.01,0.04c0-0.03-0.01-0.06-0.01-0.09c0,0.02,0,0.04,0,0.05c0-0.03,0.01-0.06,0.01-0.09
					c0,0.02-0.01,0.04-0.02,0.06c0.01-0.03,0.02-0.06,0.04-0.08c-0.01,0.02-0.02,0.04-0.04,0.06c0.02-0.02,0.04-0.05,0.05-0.07
					c-0.02,0.02-0.03,0.04-0.05,0.05c0.02-0.02,0.05-0.04,0.07-0.05c-0.02,0.01-0.04,0.02-0.06,0.03c0.03-0.01,0.06-0.02,0.08-0.04
					c-0.02,0.01-0.03,0.01-0.05,0.01c0.03,0,0.06-0.01,0.09-0.01c-0.02,0-0.04,0-0.05,0c0.03,0,0.06,0.01,0.09,0.01
					c-0.02,0-0.03-0.01-0.04-0.01c-0.05-0.01-0.09-0.02-0.14-0.01c-0.05,0-0.09,0.02-0.13,0.04c-0.04,0.02-0.07,0.05-0.1,0.09
					c-0.03,0.03-0.05,0.07-0.06,0.12c-0.02,0.09-0.02,0.19,0.04,0.27c0.02,0.02,0.04,0.05,0.05,0.07
					C31.73,25.96,31.78,25.99,31.84,26.01L31.84,26.01z"/>
			</g>
		</g>
		<g>
			<g>
				<path class="st3" d="M37.35,34.65c-0.04-0.02-0.07-0.04-0.11-0.04c-0.07-0.02-0.14-0.02-0.21,0s-0.14,0.06-0.19,0.11
					c-0.09,0.09-0.14,0.23-0.14,0.36c0,0.26,0.17,0.5,0.43,0.56c0.13,0.03,0.26,0.02,0.39,0.04c-0.03,0-0.06-0.01-0.09-0.01
					c0.04,0.01,0.07,0.01,0.11,0.03c-0.03-0.01-0.06-0.02-0.08-0.04c0.02,0.01,0.04,0.02,0.06,0.04c-0.02-0.02-0.05-0.04-0.07-0.05
					c0.01,0.01,0.01,0.01,0.02,0.02c-0.02-0.02-0.04-0.05-0.05-0.07c0.01,0.01,0.01,0.01,0.01,0.02c-0.01-0.03-0.02-0.06-0.04-0.08
					c0,0.01,0.01,0.02,0.01,0.03c0-0.03-0.01-0.06-0.01-0.09c0,0.01,0,0.02,0,0.03c0-0.03,0.01-0.06,0.01-0.09
					c0,0.02-0.01,0.03-0.01,0.04c0.01-0.03,0.02-0.06,0.04-0.08c-0.01,0.02-0.02,0.04-0.03,0.06c0.02-0.02,0.04-0.05,0.05-0.07
					c-0.01,0.01-0.02,0.03-0.04,0.04c0.02-0.02,0.05-0.04,0.07-0.05c-0.01,0.01-0.02,0.01-0.03,0.02c0.03-0.01,0.06-0.02,0.08-0.04
					c-0.01,0-0.01,0-0.02,0.01c0.03,0,0.06-0.01,0.09-0.01c-0.01,0-0.01,0-0.02,0c0.03,0,0.06,0.01,0.09,0.01h-0.01
					c0.03,0.01,0.06,0.02,0.08,0.04h-0.01c0.02,0.02,0.05,0.04,0.07,0.05c0,0,0,0-0.01-0.01c0.02,0.02,0.04,0.05,0.05,0.07
					l-0.01-0.01c0.01,0.03,0.02,0.06,0.04,0.08c0-0.01-0.01-0.02-0.01-0.03c-0.01-0.08-0.09-0.17-0.16-0.21
					c-0.08-0.04-0.19-0.06-0.27-0.04c-0.08,0.03-0.17,0.08-0.21,0.16c-0.01,0.03-0.02,0.06-0.04,0.08c-0.02,0.06-0.02,0.12,0,0.19
					c0.01,0.04,0.02,0.08,0.04,0.11c0.02,0.03,0.04,0.07,0.07,0.09c0.1,0.1,0.24,0.13,0.38,0.1c0.08-0.02,0.14-0.06,0.2-0.11
					c0.04-0.03,0.07-0.08,0.1-0.12c0.01-0.01,0.01-0.02,0.02-0.03c0.02-0.04,0.04-0.08,0.05-0.12c0.02-0.08,0.02-0.17,0-0.25
					c-0.05-0.18-0.21-0.3-0.39-0.35C37.52,35,37.38,35.01,37.24,35c0.03,0,0.06,0.01,0.09,0.01c-0.04,0-0.07-0.01-0.1-0.02
					c0.03,0.01,0.06,0.02,0.08,0.04c-0.01-0.01-0.02-0.01-0.03-0.02c0.02,0.02,0.05,0.04,0.07,0.05c-0.01-0.01-0.02-0.02-0.03-0.03
					c0.02,0.02,0.04,0.05,0.05,0.07c-0.01-0.02-0.02-0.03-0.03-0.05c0.01,0.03,0.02,0.06,0.04,0.08c-0.01-0.02-0.01-0.04-0.02-0.07
					c0,0.03,0.01,0.06,0.01,0.09c0-0.02,0-0.05,0-0.07c0,0.03-0.01,0.06-0.01,0.09c0-0.01,0.01-0.03,0.01-0.04
					c-0.01,0.03-0.02,0.06-0.04,0.08c0-0.01,0.01-0.02,0.02-0.03c-0.02,0.02-0.04,0.05-0.05,0.07c0-0.01,0.01-0.01,0.01-0.01
					c-0.02,0.02-0.05,0.04-0.07,0.05l0.01-0.01c-0.03,0.01-0.06,0.02-0.08,0.04c0.01,0,0.01,0,0.02-0.01
					c-0.03,0-0.06,0.01-0.09,0.01c0.01,0,0.01,0,0.02,0c-0.03,0-0.06-0.01-0.09-0.01c0.01,0,0.02,0,0.03,0.01
					c-0.03-0.01-0.06-0.02-0.08-0.04c0,0,0,0,0.01,0c0.04,0.03,0.08,0.04,0.13,0.04c0.05,0.01,0.09,0.01,0.14-0.01
					c0.08-0.02,0.17-0.09,0.21-0.16c0.04-0.08,0.06-0.18,0.04-0.27C37.48,34.77,37.43,34.68,37.35,34.65L37.35,34.65z"/>
			</g>
		</g>
		<g>
			<g>
				<path class="st3" d="M29.71,35.46c0,0,0-0.01-0.01-0.01c0.01,0.03,0.02,0.06,0.04,0.08c0-0.01,0-0.02-0.01-0.02
					c0,0.03,0.01,0.06,0.01,0.09c0-0.01,0-0.02,0-0.03c0,0.03-0.01,0.06-0.01,0.09c0-0.02,0.01-0.03,0.01-0.04
					c-0.01,0.03-0.02,0.06-0.04,0.08c0.01-0.01,0.01-0.02,0.02-0.03c-0.02,0.02-0.04,0.05-0.05,0.07c0.01-0.02,0.03-0.03,0.04-0.04
					c-0.02,0.02-0.05,0.04-0.07,0.05c0.01-0.01,0.03-0.02,0.04-0.02c-0.03,0.01-0.06,0.02-0.08,0.04c0.02-0.01,0.03-0.01,0.05-0.01
					c-0.03,0-0.06,0.01-0.09,0.01c0.01,0,0.02,0,0.03,0c-0.03,0-0.06-0.01-0.09-0.01c0.01,0,0.02,0.01,0.03,0.01
					c-0.03-0.01-0.06-0.02-0.08-0.04c0.01,0,0.01,0.01,0.02,0.01c-0.02-0.02-0.05-0.04-0.07-0.05c0.01,0.01,0.02,0.01,0.02,0.02
					c-0.02-0.02-0.04-0.05-0.05-0.07c0.01,0.01,0.01,0.02,0.02,0.03c-0.01-0.03-0.02-0.06-0.04-0.08c0.01,0.01,0.01,0.03,0.01,0.04
					c0-0.03-0.01-0.06-0.01-0.09c0,0.01,0,0.03,0,0.04c0-0.03,0.01-0.06,0.01-0.09c0,0.02-0.01,0.04-0.02,0.05
					c0.01-0.03,0.02-0.06,0.04-0.08c-0.01,0.01-0.01,0.03-0.02,0.04c0.02-0.02,0.04-0.05,0.05-0.07c-0.01,0.01-0.02,0.02-0.03,0.03
					c0.02-0.02,0.05-0.04,0.07-0.05c-0.01,0.01-0.02,0.02-0.04,0.02c0.03-0.01,0.06-0.02,0.08-0.04c-0.01,0-0.02,0.01-0.03,0.01
					c0.03,0,0.06-0.01,0.09-0.01c-0.01,0-0.02,0-0.03,0c0,0.23,0,0.47,0,0.7c0.23-0.01,0.45-0.14,0.56-0.35
					c0.11-0.21,0.12-0.46,0-0.67c-0.1-0.15-0.32-0.23-0.48-0.13c-0.25,0.16-0.43,0.42-0.48,0.71c-0.05,0.29-0.02,0.61,0.16,0.85
					c0.06,0.08,0.12,0.14,0.21,0.16c0.08,0.02,0.2,0.01,0.27-0.04s0.14-0.12,0.16-0.21c0.02-0.09,0.02-0.2-0.04-0.27
					c-0.03-0.04-0.06-0.09-0.08-0.14c0.01,0.03,0.02,0.06,0.04,0.08c-0.02-0.06-0.04-0.12-0.05-0.18c0,0.03,0.01,0.06,0.01,0.09
					c-0.01-0.07-0.01-0.15,0-0.22c0,0.03-0.01,0.06-0.01,0.09c0.01-0.07,0.03-0.14,0.06-0.21c-0.01,0.03-0.02,0.06-0.04,0.08
					c0.03-0.06,0.06-0.11,0.1-0.17c-0.02,0.02-0.04,0.05-0.05,0.07c0.04-0.05,0.08-0.09,0.13-0.13c-0.02,0.02-0.05,0.04-0.07,0.05
					c0.01-0.01,0.03-0.02,0.05-0.03c-0.16-0.04-0.32-0.08-0.48-0.13c0.01,0.01,0.02,0.03,0.02,0.05c-0.01-0.03-0.02-0.06-0.04-0.08
					c0.01,0.02,0.02,0.05,0.02,0.07c0-0.03-0.01-0.06-0.01-0.09c0,0.03,0,0.05,0,0.08c0-0.03,0.01-0.06,0.01-0.09
					c0,0.03-0.01,0.07-0.03,0.1c0.01-0.03,0.02-0.06,0.04-0.08c-0.01,0.03-0.03,0.05-0.05,0.08c0.02-0.02,0.04-0.05,0.05-0.07
					c-0.02,0.02-0.04,0.04-0.06,0.06c0.02-0.02,0.05-0.04,0.07-0.05c-0.02,0.02-0.04,0.03-0.06,0.04c0.03-0.01,0.06-0.02,0.08-0.04
					c-0.02,0.01-0.05,0.02-0.07,0.02c0.03,0,0.06-0.01,0.09-0.01c-0.01,0-0.02,0-0.03,0c-0.09,0.01-0.18,0.04-0.25,0.1
					c-0.06,0.06-0.11,0.16-0.1,0.25c0,0.09,0.03,0.18,0.1,0.25s0.15,0.09,0.25,0.1c0.23,0.03,0.42-0.16,0.49-0.36
					c0.07-0.18,0.02-0.4-0.12-0.53c-0.09-0.09-0.21-0.13-0.34-0.13c-0.13,0-0.24,0.06-0.34,0.14c-0.07,0.06-0.13,0.15-0.16,0.24
					c-0.04,0.13-0.01,0.25,0.04,0.37c0.03,0.08,0.13,0.14,0.21,0.16s0.2,0.01,0.27-0.04s0.14-0.12,0.16-0.21
					C29.76,35.63,29.75,35.55,29.71,35.46L29.71,35.46z"/>
			</g>
		</g>
		<g>
			<g>
				<path class="st3" d="M33.79,39.59c-0.11,0-0.23,0.04-0.31,0.12c-0.03,0.03-0.05,0.06-0.07,0.1c-0.04,0.08-0.05,0.12-0.06,0.2
					c-0.01,0.06,0,0.12,0.02,0.17c0.01,0.04,0.03,0.08,0.05,0.12c0.01,0.01,0.01,0.03,0.02,0.04c0.02,0.03,0.05,0.07,0.08,0.1
					c0.03,0.02,0.05,0.05,0.08,0.06c0.01,0,0.01,0.01,0.02,0.01c0.04,0.02,0.08,0.04,0.12,0.05c0.09,0.02,0.13,0.02,0.22,0
					c0.07-0.01,0.13-0.04,0.19-0.08c0.04-0.03,0.08-0.06,0.11-0.09c0.03-0.04,0.06-0.08,0.09-0.12c0.04-0.07,0.07-0.14,0.1-0.21
					c0.02-0.05,0.03-0.1,0.04-0.15c0.02-0.09,0.02-0.19-0.04-0.27c-0.02-0.02-0.04-0.05-0.05-0.07c-0.04-0.04-0.1-0.07-0.15-0.09
					s-0.1-0.02-0.15-0.02c-0.04,0-0.08,0.01-0.11,0.01c-0.01,0-0.02,0-0.03,0.01c-0.04,0.01-0.09,0.03-0.13,0.06
					c-0.04,0.03-0.08,0.06-0.11,0.09c-0.07,0.08-0.11,0.15-0.15,0.25c-0.02,0.05-0.02,0.1-0.02,0.14c0,0.05,0.01,0.1,0.01,0.15
					c0,0.01,0,0.02,0.01,0.03c0.01,0.04,0.03,0.07,0.05,0.11c0.01,0.02,0.03,0.04,0.04,0.06c0.01,0.02,0.03,0.04,0.05,0.06
					c0.07,0.06,0.11,0.09,0.2,0.12c0.01,0,0.02,0.01,0.03,0.01c0.03,0.01,0.07,0.01,0.1,0.01c0.01,0,0.01,0,0.02,0
					c0.01,0,0.02,0,0.03,0c0.04,0,0.08-0.01,0.12-0.02c0.04-0.01,0.07-0.03,0.11-0.04c0.01,0,0.02-0.01,0.03-0.01
					c0.01,0,0.02-0.01,0.02-0.02c0.03-0.02,0.06-0.05,0.09-0.07c0.04-0.03,0.06-0.07,0.09-0.11c0.03-0.04,0.05-0.09,0.07-0.14
					c0-0.01,0.01-0.02,0.01-0.03c0.01-0.04,0.01-0.08,0.02-0.12c0-0.01,0-0.02,0-0.03c0-0.04-0.01-0.08-0.02-0.12
					c-0.01-0.02-0.02-0.04-0.02-0.05c-0.01-0.02-0.01-0.04-0.02-0.06c-0.02-0.03-0.05-0.07-0.07-0.1c-0.03-0.03-0.07-0.06-0.11-0.07
					c-0.04-0.02-0.09-0.03-0.14-0.03s-0.09,0.01-0.14,0.03c-0.04,0.01-0.08,0.04-0.11,0.07c-0.06,0.07-0.11,0.15-0.1,0.25
					c0,0.03,0.01,0.06,0.01,0.09c0.02,0.06,0.05,0.11,0.09,0.15l0,0c-0.02-0.02-0.04-0.05-0.05-0.07c0.01,0.01,0.02,0.02,0.02,0.04
					c-0.01-0.03-0.02-0.06-0.04-0.08c0,0.01,0.01,0.02,0.01,0.04c0-0.03-0.01-0.06-0.01-0.09c0,0.01,0,0.03,0,0.04
					c0-0.03,0.01-0.06,0.01-0.09c0,0.02-0.01,0.03-0.01,0.05c0.01-0.03,0.02-0.06,0.04-0.08c-0.01,0.02-0.02,0.04-0.03,0.06
					c0.02-0.02,0.04-0.05,0.05-0.07c-0.01,0.02-0.03,0.03-0.05,0.05c0.02-0.02,0.05-0.04,0.07-0.05c-0.02,0.01-0.04,0.02-0.06,0.03
					c0.03-0.01,0.06-0.02,0.08-0.04c-0.02,0.01-0.03,0.01-0.05,0.01c0.03,0,0.06-0.01,0.09-0.01c-0.01,0-0.03,0-0.04,0
					c0.03,0,0.06,0.01,0.09,0.01c-0.01,0-0.02,0-0.03-0.01c0.03,0.01,0.06,0.02,0.08,0.04c-0.01-0.01-0.03-0.01-0.04-0.02
					c0.02,0.02,0.05,0.04,0.07,0.05c-0.01-0.01-0.02-0.02-0.03-0.03c0.02,0.02,0.04,0.05,0.05,0.07c-0.01-0.01-0.01-0.02-0.02-0.03
					c0.01,0.03,0.02,0.06,0.04,0.08c-0.01-0.01-0.01-0.03-0.01-0.04c0,0.03,0.01,0.06,0.01,0.09c0-0.02,0-0.03,0-0.05
					c0,0.03-0.01,0.06-0.01,0.09c0-0.02,0.01-0.04,0.02-0.07c-0.01,0.03-0.02,0.06-0.04,0.08c0.01-0.02,0.02-0.04,0.04-0.06
					c-0.02,0.02-0.04,0.05-0.05,0.07c0.01-0.02,0.03-0.03,0.05-0.05c-0.02,0.02-0.05,0.04-0.07,0.05c0.01-0.01,0.03-0.02,0.04-0.02
					c-0.03,0.01-0.06,0.02-0.08,0.04c0.01-0.01,0.03-0.01,0.04-0.01c-0.03,0-0.06,0.01-0.09,0.01c0.01,0,0.02,0,0.03,0
					c-0.03,0-0.06-0.01-0.09-0.01c0.01,0,0.03,0.01,0.04,0.01c-0.08-0.14-0.16-0.29-0.24-0.43c-0.01,0.07-0.03,0.13-0.06,0.19
					c0.01-0.03,0.02-0.06,0.04-0.08c-0.02,0.04-0.04,0.08-0.06,0.11c0.02-0.02,0.04-0.05,0.05-0.07c-0.02,0.02-0.03,0.04-0.05,0.05
					c0.02-0.02,0.05-0.04,0.07-0.05c-0.02,0.01-0.03,0.02-0.05,0.03c0.03-0.01,0.06-0.02,0.08-0.04c-0.02,0.01-0.03,0.01-0.05,0.01
					c0.03,0,0.06-0.01,0.09-0.01c-0.01,0-0.02,0-0.03,0c0.03,0,0.06,0.01,0.09,0.01c-0.01,0-0.02,0-0.03-0.01
					c0.03,0.01,0.06,0.02,0.08,0.04c-0.01-0.01-0.02-0.01-0.03-0.02c0.02,0.02,0.05,0.04,0.07,0.05c-0.01-0.01-0.02-0.02-0.03-0.03
					c0.02,0.02,0.04,0.05,0.05,0.07c-0.01-0.02-0.02-0.03-0.03-0.05c0.01,0.03,0.02,0.06,0.04,0.08c-0.01-0.02-0.01-0.04-0.02-0.06
					c0,0.03,0.01,0.06,0.01,0.09c0-0.01,0-0.03,0-0.04c0,0.03-0.01,0.06-0.01,0.09c0-0.01,0-0.02,0.01-0.03
					c-0.01,0.03-0.02,0.06-0.04,0.08c0-0.01,0.01-0.01,0.01-0.02c-0.02,0.02-0.04,0.05-0.05,0.07l0.01-0.01
					c-0.02,0.02-0.05,0.04-0.07,0.05c0.01,0,0.01-0.01,0.02-0.01c-0.03,0.01-0.06,0.02-0.08,0.04c0.01,0,0.02-0.01,0.02-0.01
					c-0.03,0-0.06,0.01-0.09,0.01c0.01,0,0.01,0,0.02,0c0.09,0,0.18-0.04,0.25-0.1c0.03-0.03,0.06-0.07,0.07-0.11
					c0.02-0.04,0.03-0.09,0.03-0.14c0-0.09-0.03-0.18-0.1-0.25C33.97,39.63,33.88,39.58,33.79,39.59L33.79,39.59z"/>
			</g>
		</g>
		<g>
			<g>
				<path class="st3" d="M42.83,32.76c0.05,0.05,0.1,0.1,0.15,0.15c0.32,0.32,0.82-0.18,0.5-0.5c-0.05-0.05-0.1-0.1-0.15-0.15
					C43.01,31.95,42.51,32.44,42.83,32.76c0.05,0.05,0.1,0.1,0.15,0.15c0.32,0.32,0.82-0.18,0.5-0.5c-0.05-0.05-0.1-0.1-0.15-0.15
					C43.01,31.95,42.51,32.44,42.83,32.76L42.83,32.76z"/>
			</g>
		</g>
		<g>
			<g>
				<path class="st3" d="M29.58,22.21c0.45,0,0.45-0.7,0-0.7S29.13,22.21,29.58,22.21L29.58,22.21z"/>
			</g>
		</g>
		<g>
			<g>
				<path class="st3" d="M35.03,18.42c0.45,0,0.45-0.7,0-0.7C34.57,17.72,34.57,18.42,35.03,18.42L35.03,18.42z"/>
			</g>
		</g>
		<g>
			<g>
				<path class="st3" d="M44.03,24.81c0.45,0,0.45-0.7,0-0.7C43.57,24.11,43.57,24.81,44.03,24.81L44.03,24.81z"/>
			</g>
		</g>
		<g>
			<g>
				<path class="st3" d="M40.95,30.26c0.45,0,0.45-0.7,0-0.7C40.5,29.56,40.49,30.26,40.95,30.26L40.95,30.26z"/>
			</g>
		</g>
		<g>
			<g>
				<path class="st3" d="M33.84,33.34c0.45,0,0.45-0.7,0-0.7S33.39,33.34,33.84,33.34L33.84,33.34z"/>
			</g>
		</g>
		<g>
			<g>
				<path class="st3" d="M33.37,27.42c0.45,0,0.45-0.7,0-0.7C32.92,26.72,32.92,27.42,33.37,27.42L33.37,27.42z"/>
			</g>
		</g>
		<g>
			<g>
				<path class="st3" d="M29.81,33.34c0.45,0,0.45-0.7,0-0.7S29.36,33.34,29.81,33.34L29.81,33.34z"/>
			</g>
		</g>
	</g>
</g>
<rect x="-0.11" y="-0.06" class="st8" width="71.33" height="71.24"/>
</svg>
