<?xml version="1.0" encoding="utf-8"?>
<!-- Generator: Adobe Illustrator 25.3.1, SVG Export Plug-In . SVG Version: 6.00 Build 0)  -->
<svg version="1.1" id="Capa_1" xmlns="http://www.w3.org/2000/svg" xmlns:xlink="http://www.w3.org/1999/xlink" x="0px" y="0px"
	 viewBox="0 0 217.81 71.4" style="enable-background:new 0 0 217.81 71.4;" xml:space="preserve">
<style type="text/css">
	.st0{fill:none;}
	.st1{fill:#F77C72;}
	.st2{fill:#EABEBE;}
	.st3{fill:#6D96C6;}
	.st4{fill:#F5C14C;}
	.st5{fill:#E3E7E6;}
</style>
<rect x="80.49" y="8.47" class="st0" width="6.79" height="6.83"/>
<path class="st1" d="M9.54-17.47c-6.74,4.5-10.78,4.32-17.44,3.46c-6.65-0.86-9.56,0.59-11.18,3.46c-2.1,3.71-0.93,9.17,4.3,12.24
	c5.23,3.07,9.76,4.8,7.36,14.12c-2.4,9.32-0.05,16.8,5.8,20.35c5.86,3.55,16.25,3.86,20.64-3.64c4.38-7.5,0.35-14.21,8.87-25.64
	c8.52-11.43,6.73-21.04,2.13-25.54C26.06-22.57,19.39-24.05,9.54-17.47z"/>
<path class="st2" d="M-9.98,67.78c5.89,7.5,13.89,5.29,17.73,0.41s8.43-7.83,16.47-7.67c8.04,0.16,13.14-9.59,3.61-19.22
	c-9.53-9.63-22.69-9.65-29.68-6.03C-17.18,43.19-15.87,60.27-9.98,67.78z"/>
<path class="st2" d="M30.16,80.67c5.89,7.5,13.89,5.29,17.73,0.41c3.84-4.88,8.43-7.83,16.47-7.67c8.04,0.16,13.14-9.59,3.61-19.22
	c-9.53-9.63-22.69-9.65-29.68-6.03C22.96,56.08,24.27,73.16,30.16,80.67z"/>
<path class="st3" d="M10.65,4.57c-1.61,6.56-0.56,16.26,8,23.65c6.54,5.65,12.74,5.43,15.34,3.08c1.45-1.31,2.17-5.14-1.71-6.49
	c-3.88-1.35-6.99-8.28-6.25-13.12c0.48-3.13,2.12-11.65-3.85-14.55C17.02-5.36,11.91-0.61,10.65,4.57z"/>
<path class="st2" d="M59.53-7.62c-3.67-1.74-9.4-3.96-15.91-1.93C37.1-7.52,31.62-3.63,27.7,5.11c-3.92,8.74-1.56,16.19,1.65,21.28
	c2.26,3.59,8.53,6.85,12.16,0.98c3.63-5.87,7.4-8.14,12.04-8.18c3.13-0.03,12.06,3.64,16.2-6.26C73.41,4.13,65.4-4.84,59.53-7.62z"
	/>
<rect x="-48.85" y="1.41" transform="matrix(-1.836970e-16 1 -1 -1.836970e-16 24.6176 69.4514)" class="st0" width="52.87" height="91.25"/>
<path class="st3" d="M40.94,70.91c-1.7-7.43-6.18-13.12-12.48-15.72c-4.47-1.85-10.82-2.09-16.86,0.6c-2.91,1.29-7.26,5.3-7.7,10.59
	c-0.44,5.29,3.64,8.07,6.84,9.36c3.2,1.29,8.86,3.09,12.81,6.54c3.53,3.08,6.84,6.08,10.44,5.42
	C37.58,87.03,43.05,80.17,40.94,70.91z"/>
<path class="st4" d="M12.72,40.57c0.78-5.07,4.13-9.22,7.79-12.47c7.97-7.08,18.11-11.24,28.4-11.64c3.13-0.12,6.36,0.12,9.19,1.56
	c6.06,3.09,8.79,10.79,10.03,17.93c0.9,5.18,1.27,10.78-0.93,15.48c-1.26,2.7-3.29,4.89-5.5,6.72c-3.77,3.13-8.18,5.34-12.81,6.43
	C35.22,67.81,9.42,62.11,12.72,40.57z"/>
<rect x="60.91" y="-56.54" transform="matrix(-1.836970e-16 1 -1 -1.836970e-16 106.973 -67.7142)" class="st0" width="52.87" height="152.34"/>
<path class="st5" d="M32.4,66.03c0.33-2.17,1.77-3.96,3.34-5.35c3.42-3.04,7.77-4.82,12.19-4.99c1.34-0.05,2.73,0.05,3.94,0.67
	c2.6,1.33,3.77,4.63,4.31,7.7c0.39,2.22,0.54,4.63-0.4,6.64c-0.54,1.16-1.41,2.1-2.36,2.89c-1.62,1.34-3.51,2.29-5.5,2.76
	C42.06,77.71,30.99,75.27,32.4,66.03z"/>
<path class="st3" d="M39.78,27.9c-2.47,1.07-2.15,4.29-1.45,6.35c0.7,2.06,1.93,4.7,1.5,9.14c-0.44,4.44-0.05,6.88,1.56,8.7
	c1.63,1.84,4.39,2.05,6.5,1.44c2.16-0.64,5.2-3.06,5.57-7.43c0.42-4.94-1.1-9.01-3.91-12.75C46.97,29.91,42.25,26.83,39.78,27.9z"/>
<path class="st1" d="M75.05,11.05c-5.28,3.53-8.45,3.39-13.67,2.71c-5.22-0.68-7.5,0.46-8.77,2.71c-1.64,2.91-0.73,7.19,3.38,9.6
	c4.11,2.41,7.65,3.77,5.78,11.07c-1.88,7.31-0.04,13.17,4.55,15.96c4.59,2.79,12.75,3.03,16.19-2.86
	c3.44-5.88,0.28-11.15,6.96-20.11c6.68-8.96,5.28-16.5,1.67-20.03C88.01,7.05,82.78,5.89,75.05,11.05z"/>
<rect x="68.12" y="9.77" transform="matrix(-0.7071 -0.7071 0.7071 -0.7071 112.7689 73.0685)" class="st0" width="6.79" height="6.83"/>
<path class="st1" d="M96.19,91.76c7.95,1.58,10.68,4.57,14.77,9.88c4.09,5.32,7.18,6.34,10.35,5.46c4.11-1.14,7.14-5.83,5.61-11.7
	c-1.53-5.87-3.51-10.3,4.77-15.19c8.28-4.89,11.92-11.84,10.29-18.49c-1.63-6.65-8.76-14.22-17.17-12.02
	c-8.4,2.2-10.3,9.8-24.4,11.86c-14.1,2.06-19.64,10.12-19.57,16.56C80.91,83.68,84.58,89.45,96.19,91.76z"/>
<path class="st1" d="M114.59,44.08c7.95,1.58,10.68,4.57,14.77,9.88c4.09,5.32,7.18,6.34,10.35,5.46c4.11-1.14,7.14-5.83,5.61-11.7
	c-1.53-5.87-3.51-10.3,4.77-15.19c8.28-4.89,11.92-11.84,10.29-18.49c-1.63-6.65-8.76-14.22-17.17-12.02
	c-8.4,2.2-10.3,9.8-24.4,11.86C104.71,15.94,99.18,24,99.25,30.44C99.31,36,102.97,41.77,114.59,44.08z"/>
<path class="st2" d="M126.36,47.54c1.14-9.47-6.09-13.56-12.25-12.83c-6.17,0.74-11.5-0.42-17.07-6.22
	c-5.58-5.8-16.07-2.51-16.15,11.04c-0.07,13.55,9.22,22.86,16.72,25.25C114.06,70.01,125.22,57.01,126.36,47.54z"/>
<path class="st3" d="M80.97,60.75c5.77-3.5,11.9-11.1,11.07-22.38c-0.63-8.62-5.17-12.85-8.67-13.02c-1.96-0.1-5.17,2.1-3.38,5.8
	c1.79,3.7-0.91,10.8-4.86,13.69c-2.56,1.88-9.74,6.74-7.56,13.01C69.44,63.26,76.41,63.52,80.97,60.75z"/>
<rect x="145.1" y="17.86" transform="matrix(0.7071 -0.7071 0.7071 0.7071 5.351 139.8925)" class="st0" width="52.87" height="91.25"/>
<path class="st3" d="M142.5,0.68c-4.06,6.45-4.91,13.64-2.29,19.94c1.85,4.47,6.17,9.13,12.35,11.5c2.97,1.14,8.89,1.39,12.94-2.04
	c4.05-3.43,3.13-8.28,1.78-11.46c-1.35-3.17-4.08-8.45-4.44-13.68c-0.32-4.67-0.54-9.13-3.55-11.21
	C156.27-8.35,147.56-7.36,142.5,0.68z"/>
<path class="st4" d="M114.35,28.57c-4.13,3.03-9.44,3.6-14.32,3.31c-10.64-0.63-20.75-4.86-28.31-11.85
	c-2.3-2.13-4.41-4.58-5.39-7.6c-2.09-6.47,1.41-13.85,5.59-19.78c3.02-4.3,6.73-8.52,11.61-10.29c2.8-1.01,5.78-1.13,8.65-0.86
	c4.88,0.46,9.56,2.01,13.61,4.51C117.69-6.6,131.91,15.67,114.35,28.57z"/>
<path class="st4" d="M110.22,103.66c-4.13,3.03-9.44,3.6-14.32,3.31c-10.64-0.63-20.75-4.86-28.31-11.85
	c-2.3-2.13-4.41-4.58-5.39-7.6c-2.09-6.47,1.41-13.85,5.59-19.78c3.02-4.3,6.73-8.52,11.61-10.29c2.8-1.01,5.78-1.13,8.65-0.86
	c4.88,0.46,9.56,2.01,13.61,4.51C113.56,68.48,127.78,90.76,110.22,103.66z"/>
<path class="st4" d="M166.53,86.39c-4.13,3.03-9.44,3.6-14.32,3.31c-10.64-0.63-20.75-4.86-28.31-11.85
	c-2.3-2.13-4.41-4.58-5.39-7.6c-2.09-6.47,1.41-13.85,5.59-19.78c3.02-4.3,6.73-8.52,11.61-10.29c2.8-1.01,5.78-1.13,8.65-0.86
	c4.88,0.46,9.56,2.01,13.61,4.51C169.88,51.21,184.1,73.49,166.53,86.39z"/>
<path class="st5" d="M141.12,15.7c-2.09,1.54-4.78,1.83-7.26,1.68c-5.4-0.32-10.52-2.46-14.35-6.01c-1.16-1.08-2.24-2.32-2.73-3.85
	c-1.06-3.28,0.72-7.02,2.83-10.02c1.53-2.18,3.41-4.32,5.88-5.21c1.42-0.51,2.93-0.57,4.38-0.44c2.47,0.23,4.84,1.02,6.9,2.29
	C142.81-2.13,150.02,9.16,141.12,15.7z"/>
<path class="st3" d="M104.27,45.05c2.51,0.99,4.56-1.51,5.52-3.47c0.96-1.96,1.96-4.69,5.41-7.53c3.45-2.83,4.9-4.83,5.05-7.25
	c0.15-2.45-1.65-4.56-3.58-5.61c-1.98-1.08-5.84-1.51-9.2,1.32c-3.8,3.2-5.6,7.15-6.26,11.78
	C100.61,38.54,101.77,44.06,104.27,45.05z"/>
<rect x="208.49" y="9.55" class="st0" width="6.79" height="6.83"/>
<path class="st2" d="M187.53-6.53c-3.67-1.74-9.4-3.96-15.91-1.93c-6.52,2.03-11.99,5.92-15.92,14.66
	c-3.92,8.74-1.56,16.19,1.65,21.28c2.26,3.59,8.53,6.85,12.16,0.98c3.63-5.87,7.4-8.14,12.04-8.18c3.13-0.03,12.06,3.64,16.2-6.26
	C201.42,5.21,193.4-3.75,187.53-6.53z"/>
<rect x="188.91" y="-55.46" transform="matrix(-1.836970e-16 1 -1 -1.836970e-16 236.0639 -194.6329)" class="st0" width="52.87" height="152.34"/>
<path class="st5" d="M144.95,35.62c0.7-4.55,3.7-8.28,6.99-11.2c7.16-6.36,16.26-10.09,25.49-10.45c2.81-0.11,5.71,0.1,8.25,1.4
	c5.44,2.78,7.89,9.69,9.01,16.1c0.81,4.65,1.14,9.68-0.84,13.9c-1.13,2.42-2.95,4.39-4.94,6.04c-3.38,2.81-7.34,4.79-11.5,5.77
	C165.16,60.07,141.99,54.95,144.95,35.62z"/>
<path class="st3" d="M167.78,28.99c-2.47,1.07-2.15,4.29-1.45,6.35c0.7,2.06,1.93,4.7,1.5,9.14c-0.44,4.44-0.05,6.88,1.56,8.7
	c1.63,1.84,4.39,2.05,6.5,1.44c2.16-0.64,5.2-3.06,5.57-7.43c0.42-4.94-1.1-9.01-3.91-12.75C174.97,31,170.26,27.92,167.78,28.99z"
	/>
<path class="st1" d="M203.06,12.13c-5.28,3.53-8.46,3.39-13.67,2.71c-5.22-0.68-7.5,0.46-8.77,2.71c-1.64,2.91-0.73,7.19,3.38,9.6
	c4.11,2.41,7.65,3.77,5.78,11.07c-1.88,7.31-0.04,13.17,4.55,15.96c4.59,2.79,12.75,3.03,16.19-2.86
	c3.44-5.88,0.28-11.15,6.96-20.11c6.68-8.96,5.28-16.5,1.67-20.03C216.01,8.14,210.78,6.98,203.06,12.13z"/>
<rect x="196.13" y="10.85" transform="matrix(-0.7071 -0.7071 0.7071 -0.7071 330.5189 165.4358)" class="st0" width="6.79" height="6.83"/>
<path class="st1" d="M224.2,92.84c7.95,1.58,10.68,4.57,14.77,9.88c4.09,5.32,7.18,6.34,10.35,5.46c4.11-1.14,7.14-5.83,5.61-11.7
	c-1.53-5.87-3.51-10.3,4.77-15.19c8.28-4.89,11.92-11.84,10.29-18.49c-1.63-6.65-8.76-14.22-17.17-12.02
	c-8.4,2.2-10.3,9.8-24.4,11.86c-14.1,2.06-19.64,10.12-19.57,16.56C208.92,84.77,212.58,90.53,224.2,92.84z"/>
<path class="st1" d="M165.26,88.34c7.95,1.58,10.68,4.57,14.77,9.88c4.09,5.32,7.18,6.34,10.35,5.46c4.11-1.14,7.14-5.83,5.61-11.7
	c-1.53-5.87-3.51-10.3,4.77-15.19c8.28-4.89,11.92-11.84,10.29-18.49c-1.63-6.65-8.76-14.22-17.17-12.02
	c-8.4,2.2-10.3,9.8-24.4,11.86c-14.1,2.06-19.64,10.12-19.57,16.56C149.98,80.26,153.64,86.03,165.26,88.34z"/>
<path class="st2" d="M254.37,48.62c1.14-9.47-6.09-13.56-12.25-12.83c-6.17,0.74-11.5-0.42-17.07-6.22
	c-5.58-5.8-16.07-2.51-16.15,11.04c-0.07,13.55,9.22,22.86,16.72,25.25C242.07,71.1,253.22,58.09,254.37,48.62z"/>
<path class="st3" d="M208.97,61.84c5.77-3.5,11.9-11.1,11.07-22.38c-0.63-8.62-5.17-12.85-8.67-13.02c-1.96-0.1-5.17,2.1-3.38,5.8
	c1.79,3.7-0.91,10.8-4.86,13.69c-2.56,1.88-9.74,6.74-7.56,13.01C197.44,64.35,204.41,64.6,208.97,61.84z"/>
<path class="st2" d="M181.18,68.93c1.37,3.83,3.84,9.44,9.89,12.62c6.04,3.17,12.67,4.29,21.62,0.89
	c8.95-3.4,12.55-10.35,13.88-16.22c0.94-4.14-1.18-10.87-7.9-9.29c-6.72,1.59-10.99,0.52-14.3-2.73c-2.23-2.19-5.96-11.1-15.88-7.02
	C179.67,50.8,179,62.81,181.18,68.93z"/>
<path class="st4" d="M242.35,29.66c-4.13,3.03-9.44,3.6-14.32,3.31c-10.64-0.63-20.75-4.86-28.31-11.85
	c-2.3-2.13-4.41-4.58-5.39-7.6c-2.09-6.47,1.41-13.85,5.59-19.78c3.02-4.3,6.73-8.52,11.61-10.29c2.8-1.01,5.78-1.13,8.65-0.86
	c4.88,0.46,9.56,2.01,13.61,4.51C245.7-5.52,259.92,16.76,242.35,29.66z"/>
</svg>
