<?xml version="1.0" encoding="utf-8"?>
<!-- Generator: Adobe Illustrator 25.3.1, SVG Export Plug-In . SVG Version: 6.00 Build 0)  -->
<svg version="1.1" id="Capa_1" xmlns="http://www.w3.org/2000/svg" xmlns:xlink="http://www.w3.org/1999/xlink" x="0px" y="0px"
	 viewBox="0 0 71.4 71.4" style="enable-background:new 0 0 71.4 71.4;" xml:space="preserve">
<style type="text/css">
	.st0{fill:#EED8D6;}
	.st1{fill:#E4E8E6;}
	.st2{fill:#020203;}
	.st3{fill:none;}
</style>
<g>
	<path class="st0" d="M12.11,38.74C14.29,50.8,26.09,58.98,38.17,56.8c12.06-2.18,20.24-13.98,18.06-26.06L12.11,38.74z"/>
	<path class="st1" d="M59.01,30.16C56.83,18.1,45.04,9.92,32.96,12.1c-12.06,2.18-20.24,13.97-18.06,26.06L59.01,30.16z"/>
	<g>
		<g>
			<path class="st2" d="M42.95,20.92c0.71,0,0.71-1.11,0-1.11C42.23,19.82,42.23,20.92,42.95,20.92L42.95,20.92z"/>
		</g>
	</g>
	<g>
		<g>
			<path class="st2" d="M37.63,22.88c0.16,0.36,0.32,0.71,0.47,1.07c0.05,0.13,0.21,0.22,0.33,0.25s0.32,0.02,0.43-0.06
				c0.11-0.08,0.22-0.19,0.25-0.33c0-0.05,0.02-0.09,0.02-0.14c0-0.09-0.03-0.19-0.08-0.28c-0.16-0.36-0.32-0.71-0.47-1.07
				c-0.05-0.13-0.21-0.22-0.33-0.25c-0.13-0.03-0.32-0.02-0.43,0.06c-0.11,0.08-0.22,0.19-0.25,0.33c0,0.05-0.02,0.09-0.02,0.14
				C37.55,22.71,37.58,22.8,37.63,22.88L37.63,22.88z"/>
		</g>
	</g>
	<g>
		<g>
			<path class="st2" d="M29.69,28.8c0.14,0.06,0.32,0.05,0.47,0.02c0.16-0.03,0.28-0.13,0.41-0.22c0.03-0.02,0.05-0.05,0.06-0.06
				c0.05-0.06,0.09-0.13,0.14-0.19c0.08-0.14,0.13-0.3,0.11-0.46c0-0.16-0.05-0.32-0.13-0.44c-0.08-0.11-0.17-0.22-0.32-0.28
				c-0.16-0.06-0.28-0.11-0.44-0.11c-0.08,0-0.16,0.02-0.22,0.03c-0.03,0-0.05,0.02-0.08,0.02c-0.14,0.05-0.28,0.13-0.39,0.24
				c-0.09,0.11-0.19,0.25-0.22,0.39c-0.02,0.08-0.03,0.14-0.02,0.22c0,0.08,0.03,0.14,0.06,0.21c0.03,0.06,0.08,0.11,0.14,0.16
				c0.05,0.05,0.11,0.08,0.19,0.09c0.14,0.03,0.3,0.03,0.43-0.06c0.03-0.03,0.08-0.06,0.11-0.08c0.06-0.06,0.11-0.16,0.14-0.24
				c0-0.02,0.02-0.05,0.02-0.06c-0.02,0.05-0.03,0.09-0.06,0.13c0.02-0.02,0.02-0.05,0.03-0.06c-0.03,0.03-0.06,0.08-0.08,0.11
				c0.02-0.02,0.03-0.05,0.06-0.06c-0.03,0.03-0.08,0.06-0.11,0.08c0.03-0.02,0.06-0.03,0.09-0.05c-0.05,0.02-0.09,0.03-0.13,0.06
				c0.03-0.02,0.08-0.03,0.11-0.03c-0.05,0-0.09,0.02-0.14,0.02c0.03,0,0.08,0,0.11,0c-0.05,0-0.09-0.02-0.14-0.02
				c0.03,0,0.06,0.02,0.09,0.03c-0.05-0.02-0.09-0.03-0.13-0.06c0.03,0.02,0.05,0.03,0.06,0.05c-0.03-0.03-0.08-0.06-0.11-0.08
				c0.02,0.02,0.03,0.03,0.05,0.05c-0.03-0.03-0.06-0.08-0.08-0.11c0.02,0.02,0.03,0.05,0.03,0.06c-0.02-0.05-0.03-0.09-0.06-0.13
				c0.02,0.02,0.02,0.05,0.02,0.06c0-0.05-0.02-0.09-0.02-0.14c0,0.03,0,0.06,0,0.08c0-0.05,0.02-0.09,0.02-0.14
				c0,0.03-0.02,0.06-0.03,0.09c0.02-0.05,0.03-0.09,0.06-0.13c-0.02,0.03-0.03,0.06-0.06,0.09c0.03-0.03,0.06-0.08,0.08-0.11
				c-0.03,0.03-0.05,0.06-0.08,0.08c0.03-0.03,0.08-0.06,0.11-0.08c-0.03,0.02-0.06,0.03-0.09,0.05c0.05-0.02,0.09-0.03,0.13-0.06
				c-0.03,0.02-0.05,0.02-0.08,0.02c0.05,0,0.09-0.02,0.14-0.02c-0.03,0-0.06,0-0.08,0c0.05,0,0.09,0.02,0.14,0.02
				c-0.03,0-0.05-0.02-0.06-0.02c-0.08-0.02-0.14-0.03-0.22-0.02c-0.08,0-0.14,0.03-0.21,0.06c-0.06,0.03-0.11,0.08-0.16,0.14
				c-0.05,0.05-0.08,0.11-0.09,0.19c-0.03,0.14-0.03,0.3,0.06,0.43c0.03,0.03,0.06,0.08,0.08,0.11
				C29.52,28.73,29.59,28.77,29.69,28.8L29.69,28.8z"/>
		</g>
	</g>
	<g>
		<g>
			<path class="st2" d="M38.39,42.45c-0.06-0.03-0.11-0.06-0.17-0.06c-0.11-0.03-0.22-0.03-0.33,0c-0.11,0.03-0.22,0.09-0.3,0.17
				c-0.14,0.14-0.22,0.36-0.22,0.57c0,0.41,0.27,0.79,0.68,0.88c0.21,0.05,0.41,0.03,0.62,0.06c-0.05,0-0.09-0.02-0.14-0.02
				c0.06,0.02,0.11,0.02,0.17,0.05c-0.05-0.02-0.09-0.03-0.13-0.06c0.03,0.02,0.06,0.03,0.09,0.06c-0.03-0.03-0.08-0.06-0.11-0.08
				c0.02,0.02,0.02,0.02,0.03,0.03c-0.03-0.03-0.06-0.08-0.08-0.11c0.02,0.02,0.02,0.02,0.02,0.03c-0.02-0.05-0.03-0.09-0.06-0.13
				c0,0.02,0.02,0.03,0.02,0.05c0-0.05-0.02-0.09-0.02-0.14c0,0.02,0,0.03,0,0.05c0-0.05,0.02-0.09,0.02-0.14
				c0,0.03-0.02,0.05-0.02,0.06c0.02-0.05,0.03-0.09,0.06-0.13c-0.02,0.03-0.03,0.06-0.05,0.09c0.03-0.03,0.06-0.08,0.08-0.11
				c-0.02,0.02-0.03,0.05-0.06,0.06c0.03-0.03,0.08-0.06,0.11-0.08c-0.02,0.02-0.03,0.02-0.05,0.03c0.05-0.02,0.09-0.03,0.13-0.06
				c-0.02,0-0.02,0-0.03,0.02c0.05,0,0.09-0.02,0.14-0.02c-0.02,0-0.02,0-0.03,0c0.05,0,0.09,0.02,0.14,0.02h-0.02
				c0.05,0.02,0.09,0.03,0.13,0.06h-0.02c0.03,0.03,0.08,0.06,0.11,0.08c0,0,0,0-0.02-0.02c0.03,0.03,0.06,0.08,0.08,0.11
				l-0.02-0.02c0.02,0.05,0.03,0.09,0.06,0.13c0-0.02-0.02-0.03-0.02-0.05c-0.02-0.13-0.14-0.27-0.25-0.33
				c-0.13-0.06-0.3-0.09-0.43-0.06c-0.13,0.05-0.27,0.13-0.33,0.25c-0.02,0.05-0.03,0.09-0.06,0.13c-0.03,0.09-0.03,0.19,0,0.3
				c0.02,0.06,0.03,0.13,0.06,0.17c0.03,0.05,0.06,0.11,0.11,0.14c0.16,0.16,0.38,0.21,0.6,0.16c0.13-0.03,0.22-0.09,0.32-0.17
				c0.06-0.05,0.11-0.13,0.16-0.19c0.02-0.02,0.02-0.03,0.03-0.05c0.03-0.06,0.06-0.13,0.08-0.19c0.03-0.13,0.03-0.27,0-0.39
				c-0.08-0.28-0.33-0.47-0.62-0.55C38.66,43,38.44,43.02,38.22,43c0.05,0,0.09,0.02,0.14,0.02c-0.06,0-0.11-0.02-0.16-0.03
				c0.05,0.02,0.09,0.03,0.13,0.06c-0.02-0.02-0.03-0.02-0.05-0.03c0.03,0.03,0.08,0.06,0.11,0.08c-0.02-0.02-0.03-0.03-0.05-0.05
				c0.03,0.03,0.06,0.08,0.08,0.11c-0.02-0.03-0.03-0.05-0.05-0.08c0.02,0.05,0.03,0.09,0.06,0.13c-0.02-0.03-0.02-0.06-0.03-0.11
				c0,0.05,0.02,0.09,0.02,0.14c0-0.03,0-0.08,0-0.11c0,0.05-0.02,0.09-0.02,0.14c0-0.02,0.02-0.05,0.02-0.06
				c-0.02,0.05-0.03,0.09-0.06,0.13c0-0.02,0.02-0.03,0.03-0.05c-0.03,0.03-0.06,0.08-0.08,0.11c0-0.02,0.02-0.02,0.02-0.02
				c-0.03,0.03-0.08,0.06-0.11,0.08l0.02-0.02c-0.05,0.02-0.09,0.03-0.13,0.06c0.02,0,0.02,0,0.03-0.02c-0.05,0-0.09,0.02-0.14,0.02
				c0.02,0,0.02,0,0.03,0c-0.05,0-0.09-0.02-0.14-0.02c0.02,0,0.03,0,0.05,0.02c-0.05-0.02-0.09-0.03-0.13-0.06c0,0,0,0,0.02,0
				c0.06,0.05,0.13,0.06,0.21,0.06c0.08,0.02,0.14,0.02,0.22-0.02c0.13-0.03,0.27-0.14,0.33-0.25c0.06-0.13,0.09-0.28,0.06-0.43
				C38.6,42.64,38.52,42.5,38.39,42.45L38.39,42.45z"/>
		</g>
	</g>
	<g>
		<g>
			<path class="st2" d="M26.33,43.73c0,0,0-0.02-0.02-0.02c0.02,0.05,0.03,0.09,0.06,0.13c0-0.02,0-0.03-0.02-0.03
				c0,0.05,0.02,0.09,0.02,0.14c0-0.02,0-0.03,0-0.05c0,0.05-0.02,0.09-0.02,0.14c0-0.03,0.02-0.05,0.02-0.06
				c-0.02,0.05-0.03,0.09-0.06,0.13c0.02-0.02,0.02-0.03,0.03-0.05c-0.03,0.03-0.06,0.08-0.08,0.11c0.02-0.03,0.05-0.05,0.06-0.06
				c-0.03,0.03-0.08,0.06-0.11,0.08c0.02-0.02,0.05-0.03,0.06-0.03c-0.05,0.02-0.09,0.03-0.13,0.06c0.03-0.02,0.05-0.02,0.08-0.02
				c-0.05,0-0.09,0.02-0.14,0.02c0.02,0,0.03,0,0.05,0c-0.05,0-0.09-0.02-0.14-0.02c0.02,0,0.03,0.02,0.05,0.02
				c-0.05-0.02-0.09-0.03-0.13-0.06c0.02,0,0.02,0.02,0.03,0.02c-0.03-0.03-0.08-0.06-0.11-0.08c0.02,0.02,0.03,0.02,0.03,0.03
				c-0.03-0.03-0.06-0.08-0.08-0.11c0.02,0.02,0.02,0.03,0.03,0.05c-0.02-0.05-0.03-0.09-0.06-0.13c0.02,0.02,0.02,0.05,0.02,0.06
				c0-0.05-0.02-0.09-0.02-0.14c0,0.02,0,0.05,0,0.06c0-0.05,0.02-0.09,0.02-0.14c0,0.03-0.02,0.06-0.03,0.08
				c0.02-0.05,0.03-0.09,0.06-0.13c-0.02,0.02-0.02,0.05-0.03,0.06c0.03-0.03,0.06-0.08,0.08-0.11c-0.02,0.02-0.03,0.03-0.05,0.05
				c0.03-0.03,0.08-0.06,0.11-0.08c-0.02,0.02-0.03,0.03-0.06,0.03c0.05-0.02,0.09-0.03,0.13-0.06c-0.02,0-0.03,0.02-0.05,0.02
				c0.05,0,0.09-0.02,0.14-0.02c-0.02,0-0.03,0-0.05,0c0,0.36,0,0.74,0,1.11c0.36-0.02,0.71-0.22,0.88-0.55
				c0.17-0.33,0.19-0.73,0-1.06c-0.16-0.24-0.51-0.36-0.76-0.21c-0.39,0.25-0.68,0.66-0.76,1.12c-0.08,0.46-0.03,0.96,0.25,1.34
				c0.09,0.13,0.19,0.22,0.33,0.25c0.13,0.03,0.32,0.02,0.43-0.06c0.11-0.08,0.22-0.19,0.25-0.33c0.03-0.14,0.03-0.32-0.06-0.43
				c-0.05-0.06-0.09-0.14-0.13-0.22c0.02,0.05,0.03,0.09,0.06,0.13c-0.03-0.09-0.06-0.19-0.08-0.28c0,0.05,0.02,0.09,0.02,0.14
				c-0.02-0.11-0.02-0.24,0-0.35c0,0.05-0.02,0.09-0.02,0.14c0.02-0.11,0.05-0.22,0.09-0.33c-0.02,0.05-0.03,0.09-0.06,0.13
				c0.05-0.09,0.09-0.17,0.16-0.27c-0.03,0.03-0.06,0.08-0.08,0.11c0.06-0.08,0.13-0.14,0.21-0.21c-0.03,0.03-0.08,0.06-0.11,0.08
				c0.02-0.02,0.05-0.03,0.08-0.05c-0.25-0.06-0.51-0.13-0.76-0.21c0.02,0.02,0.03,0.05,0.03,0.08c-0.02-0.05-0.03-0.09-0.06-0.13
				c0.02,0.03,0.03,0.08,0.03,0.11c0-0.05-0.02-0.09-0.02-0.14c0,0.05,0,0.08,0,0.13c0-0.05,0.02-0.09,0.02-0.14
				c0,0.05-0.02,0.11-0.05,0.16c0.02-0.05,0.03-0.09,0.06-0.13c-0.02,0.05-0.05,0.08-0.08,0.13c0.03-0.03,0.06-0.08,0.08-0.11
				c-0.03,0.03-0.06,0.06-0.09,0.09c0.03-0.03,0.08-0.06,0.11-0.08c-0.03,0.03-0.06,0.05-0.09,0.06c0.05-0.02,0.09-0.03,0.13-0.06
				c-0.03,0.02-0.08,0.03-0.11,0.03c0.05,0,0.09-0.02,0.14-0.02c-0.02,0-0.03,0-0.05,0c-0.14,0.02-0.28,0.06-0.39,0.16
				c-0.09,0.09-0.17,0.25-0.16,0.39c0,0.14,0.05,0.28,0.16,0.39s0.24,0.14,0.39,0.16c0.36,0.05,0.66-0.25,0.77-0.57
				c0.11-0.28,0.03-0.63-0.19-0.84c-0.14-0.14-0.33-0.21-0.54-0.21c-0.21,0-0.38,0.09-0.54,0.22c-0.11,0.09-0.21,0.24-0.25,0.38
				c-0.06,0.21-0.02,0.39,0.06,0.58c0.05,0.13,0.21,0.22,0.33,0.25c0.13,0.03,0.32,0.02,0.43-0.06c0.11-0.08,0.22-0.19,0.25-0.33
				C26.4,44,26.39,43.87,26.33,43.73L26.33,43.73z"/>
		</g>
	</g>
	<g>
		<g>
			<path class="st2" d="M32.77,50.25c-0.17,0-0.36,0.06-0.49,0.19c-0.05,0.05-0.08,0.09-0.11,0.16c-0.06,0.13-0.08,0.19-0.09,0.32
				c-0.02,0.09,0,0.19,0.03,0.27c0.02,0.06,0.05,0.13,0.08,0.19c0.02,0.02,0.02,0.05,0.03,0.06c0.03,0.05,0.08,0.11,0.13,0.16
				c0.05,0.03,0.08,0.08,0.13,0.09c0.02,0,0.02,0.02,0.03,0.02c0.06,0.03,0.13,0.06,0.19,0.08c0.14,0.03,0.21,0.03,0.35,0
				c0.11-0.02,0.21-0.06,0.3-0.13c0.06-0.05,0.13-0.09,0.17-0.14c0.05-0.06,0.09-0.13,0.14-0.19c0.06-0.11,0.11-0.22,0.16-0.33
				c0.03-0.08,0.05-0.16,0.06-0.24c0.03-0.14,0.03-0.3-0.06-0.43c-0.03-0.03-0.06-0.08-0.08-0.11c-0.06-0.06-0.16-0.11-0.24-0.14
				c-0.08-0.03-0.16-0.03-0.24-0.03c-0.06,0-0.13,0.02-0.17,0.02c-0.02,0-0.03,0-0.05,0.02c-0.06,0.02-0.14,0.05-0.21,0.09
				c-0.06,0.05-0.13,0.09-0.17,0.14c-0.11,0.13-0.17,0.24-0.24,0.39c-0.03,0.08-0.03,0.16-0.03,0.22c0,0.08,0.02,0.16,0.02,0.24
				c0,0.02,0,0.03,0.02,0.05c0.02,0.06,0.05,0.11,0.08,0.17c0.02,0.03,0.05,0.06,0.06,0.09c0.02,0.03,0.05,0.06,0.08,0.09
				c0.11,0.09,0.17,0.14,0.32,0.19c0.02,0,0.03,0.02,0.05,0.02c0.05,0.02,0.11,0.02,0.16,0.02c0.02,0,0.02,0,0.03,0s0.03,0,0.05,0
				c0.06,0,0.13-0.02,0.19-0.03c0.06-0.02,0.11-0.05,0.17-0.06c0.02,0,0.03-0.02,0.05-0.02c0.02,0,0.03-0.02,0.03-0.03
				c0.05-0.03,0.09-0.08,0.14-0.11c0.06-0.05,0.09-0.11,0.14-0.17c0.05-0.06,0.08-0.14,0.11-0.22c0-0.02,0.02-0.03,0.02-0.05
				c0.02-0.06,0.02-0.13,0.03-0.19c0-0.02,0-0.03,0-0.05c0-0.06-0.02-0.13-0.03-0.19c-0.02-0.03-0.03-0.06-0.03-0.08
				c-0.02-0.03-0.02-0.06-0.03-0.09c-0.03-0.05-0.08-0.11-0.11-0.16c-0.05-0.05-0.11-0.09-0.17-0.11c-0.06-0.03-0.14-0.05-0.22-0.05
				s-0.14,0.02-0.22,0.05c-0.06,0.02-0.13,0.06-0.17,0.11c-0.09,0.11-0.17,0.24-0.16,0.39c0,0.05,0.02,0.09,0.02,0.14
				c0.03,0.09,0.08,0.17,0.14,0.24l0,0c-0.03-0.03-0.06-0.08-0.08-0.11c0.02,0.02,0.03,0.03,0.03,0.06
				c-0.02-0.05-0.03-0.09-0.06-0.13c0,0.02,0.02,0.03,0.02,0.06c0-0.05-0.02-0.09-0.02-0.14c0,0.02,0,0.05,0,0.06
				c0-0.05,0.02-0.09,0.02-0.14c0,0.03-0.02,0.05-0.02,0.08c0.02-0.05,0.03-0.09,0.06-0.13c-0.02,0.03-0.03,0.06-0.05,0.09
				c0.03-0.03,0.06-0.08,0.08-0.11c-0.02,0.03-0.05,0.05-0.08,0.08c0.03-0.03,0.08-0.06,0.11-0.08c-0.03,0.02-0.06,0.03-0.09,0.05
				c0.05-0.02,0.09-0.03,0.13-0.06c-0.03,0.02-0.05,0.02-0.08,0.02c0.05,0,0.09-0.02,0.14-0.02c-0.02,0-0.05,0-0.06,0
				c0.05,0,0.09,0.02,0.14,0.02c-0.02,0-0.03,0-0.05-0.02c0.05,0.02,0.09,0.03,0.13,0.06c-0.02-0.02-0.05-0.02-0.06-0.03
				c0.03,0.03,0.08,0.06,0.11,0.08c-0.02-0.02-0.03-0.03-0.05-0.05c0.03,0.03,0.06,0.08,0.08,0.11c-0.02-0.02-0.02-0.03-0.03-0.05
				c0.02,0.05,0.03,0.09,0.06,0.13c-0.02-0.02-0.02-0.05-0.02-0.06c0,0.05,0.02,0.09,0.02,0.14c0-0.03,0-0.05,0-0.08
				c0,0.05-0.02,0.09-0.02,0.14c0-0.03,0.02-0.06,0.03-0.11c-0.02,0.05-0.03,0.09-0.06,0.13c0.02-0.03,0.03-0.06,0.06-0.09
				c-0.03,0.03-0.06,0.08-0.08,0.11c0.02-0.03,0.05-0.05,0.08-0.08c-0.03,0.03-0.08,0.06-0.11,0.08c0.02-0.02,0.05-0.03,0.06-0.03
				c-0.05,0.02-0.09,0.03-0.13,0.06c0.02-0.02,0.05-0.02,0.06-0.02c-0.05,0-0.09,0.02-0.14,0.02c0.02,0,0.03,0,0.05,0
				c-0.05,0-0.09-0.02-0.14-0.02c0.02,0,0.05,0.02,0.06,0.02c-0.13-0.22-0.25-0.46-0.38-0.68c-0.02,0.11-0.05,0.21-0.09,0.3
				c0.02-0.05,0.03-0.09,0.06-0.13c-0.03,0.06-0.06,0.13-0.09,0.17c0.03-0.03,0.06-0.08,0.08-0.11c-0.03,0.03-0.05,0.06-0.08,0.08
				c0.03-0.03,0.08-0.06,0.11-0.08c-0.03,0.02-0.05,0.03-0.08,0.05c0.05-0.02,0.09-0.03,0.13-0.06c-0.03,0.02-0.05,0.02-0.08,0.02
				c0.05,0,0.09-0.02,0.14-0.02c-0.02,0-0.03,0-0.05,0c0.05,0,0.09,0.02,0.14,0.02c-0.02,0-0.03,0-0.05-0.02
				c0.05,0.02,0.09,0.03,0.13,0.06c-0.02-0.02-0.03-0.02-0.05-0.03c0.03,0.03,0.08,0.06,0.11,0.08c-0.02-0.02-0.03-0.03-0.05-0.05
				c0.03,0.03,0.06,0.08,0.08,0.11c-0.02-0.03-0.03-0.05-0.05-0.08c0.02,0.05,0.03,0.09,0.06,0.13c-0.02-0.03-0.02-0.06-0.03-0.09
				c0,0.05,0.02,0.09,0.02,0.14c0-0.02,0-0.05,0-0.06c0,0.05-0.02,0.09-0.02,0.14c0-0.02,0-0.03,0.02-0.05
				c-0.02,0.05-0.03,0.09-0.06,0.13c0-0.02,0.02-0.02,0.02-0.03c-0.03,0.03-0.06,0.08-0.08,0.11l0.02-0.02
				c-0.03,0.03-0.08,0.06-0.11,0.08c0.02,0,0.02-0.02,0.03-0.02c-0.05,0.02-0.09,0.03-0.13,0.06c0.02,0,0.03-0.02,0.03-0.02
				c-0.05,0-0.09,0.02-0.14,0.02c0.02,0,0.02,0,0.03,0c0.14,0,0.28-0.06,0.39-0.16c0.05-0.05,0.09-0.11,0.11-0.17
				c0.03-0.06,0.05-0.14,0.05-0.22c0-0.14-0.05-0.28-0.16-0.39C33.05,50.31,32.91,50.23,32.77,50.25L32.77,50.25z"/>
		</g>
	</g>
	<g>
		<g>
			<path class="st2" d="M47.04,39.46c0.08,0.08,0.16,0.16,0.24,0.24c0.51,0.51,1.29-0.28,0.79-0.79c-0.08-0.08-0.16-0.16-0.24-0.24
				C47.33,38.18,46.54,38.96,47.04,39.46c0.08,0.08,0.16,0.16,0.24,0.24c0.51,0.51,1.29-0.28,0.79-0.79
				c-0.08-0.08-0.16-0.16-0.24-0.24C47.33,38.18,46.54,38.96,47.04,39.46L47.04,39.46z"/>
		</g>
	</g>
	<g>
		<g>
			<path class="st2" d="M26.12,22.8c0.71,0,0.71-1.11,0-1.11S25.41,22.8,26.12,22.8L26.12,22.8z"/>
		</g>
	</g>
	<g>
		<g>
			<path class="st2" d="M34.73,16.82c0.71,0,0.71-1.11,0-1.11C34,15.71,34,16.82,34.73,16.82L34.73,16.82z"/>
		</g>
	</g>
	<g>
		<g>
			<path class="st2" d="M48.94,26.91c0.71,0,0.71-1.11,0-1.11C48.21,25.8,48.21,26.91,48.94,26.91L48.94,26.91z"/>
		</g>
	</g>
	<g>
		<g>
			<path class="st2" d="M44.07,35.52c0.71,0,0.71-1.11,0-1.11C43.36,34.41,43.35,35.52,44.07,35.52L44.07,35.52z"/>
		</g>
	</g>
	<g>
		<g>
			<path class="st2" d="M32.85,40.38c0.71,0,0.71-1.11,0-1.11S32.14,40.38,32.85,40.38L32.85,40.38z"/>
		</g>
	</g>
	<g>
		<g>
			<path class="st2" d="M32.11,31.03c0.71,0,0.71-1.11,0-1.11C31.39,29.93,31.39,31.03,32.11,31.03L32.11,31.03z"/>
		</g>
	</g>
	<g>
		<g>
			<path class="st2" d="M26.48,40.38c0.71,0,0.71-1.11,0-1.11S25.77,40.38,26.48,40.38L26.48,40.38z"/>
		</g>
	</g>
</g>
<rect x="0.12" y="0.13" class="st3" width="71.33" height="71.7"/>
</svg>
