<?xml version="1.0" encoding="utf-8"?>
<!-- Generator: Adobe Illustrator 25.3.1, SVG Export Plug-In . SVG Version: 6.00 Build 0)  -->
<svg version="1.1" id="Capa_1" xmlns="http://www.w3.org/2000/svg" xmlns:xlink="http://www.w3.org/1999/xlink" x="0px" y="0px"
	 viewBox="0 0 71.4 71.4" style="enable-background:new 0 0 71.4 71.4;" xml:space="preserve">
<style type="text/css">
	.st0{fill:#EF7B73;}
	.st1{fill:#EE7A73;}
	.st2{fill:#6C95C5;}
	.st3{fill:#F6D387;}
	.st4{fill:#EDD7D5;}
	.st5{fill:none;}
</style>
<g>
	<g>
		<path class="st0" d="M16.58,51.4v4.85h-1.35v-2.68l-0.92,2.68h-1.13l-0.92-2.7v2.7h-1.35V51.4h1.63l1.22,3.15l1.19-3.15H16.58z"/>
		<path class="st0" d="M20.07,51.4v4.85h-1.35V51.4H20.07z"/>
		<path class="st0" d="M26.72,56.25h-1.35l-1.8-2.71v2.71h-1.35V51.4h1.35l1.8,2.75V51.4h1.35V56.25z"/>
		<path class="st0" d="M30.21,51.4v4.85h-1.35V51.4H30.21z"/>
		<path class="st0" d="M32.49,52.54c0.2-0.37,0.48-0.67,0.85-0.87c0.37-0.21,0.79-0.31,1.27-0.31c0.61,0,1.12,0.16,1.53,0.49
			c0.41,0.32,0.68,0.76,0.8,1.32h-1.45c-0.09-0.18-0.21-0.32-0.36-0.42c-0.15-0.1-0.33-0.14-0.53-0.14c-0.31,0-0.56,0.11-0.75,0.33
			s-0.28,0.52-0.28,0.89c0,0.38,0.09,0.68,0.28,0.9s0.43,0.33,0.75,0.33c0.2,0,0.38-0.05,0.53-0.14c0.15-0.1,0.27-0.24,0.36-0.42
			h1.45c-0.12,0.56-0.38,1-0.8,1.32c-0.41,0.32-0.92,0.49-1.53,0.49c-0.48,0-0.9-0.1-1.27-0.31c-0.37-0.21-0.65-0.5-0.85-0.87
			c-0.2-0.37-0.3-0.8-0.3-1.28C32.19,53.34,32.29,52.91,32.49,52.54z"/>
		<path class="st0" d="M42.02,55.46H40.3l-0.26,0.79h-1.42l1.77-4.85h1.56l1.76,4.85h-1.42L42.02,55.46z M41.68,54.43l-0.52-1.57
			l-0.52,1.57H41.68z"/>
		<path class="st0" d="M48.39,56.25l-1.52-2.13v2.13h-1.35V51.4h1.35v2.09l1.51-2.09h1.56l-1.78,2.35l1.87,2.5H48.39z"/>
		<path class="st0" d="M53.24,52.48v0.79h1.55v1.03h-1.55v0.87H55v1.08h-3.1V51.4H55v1.08H53.24z"/>
		<path class="st0" d="M57.48,55.89c-0.36-0.27-0.56-0.65-0.59-1.15h1.44c0.01,0.17,0.06,0.29,0.15,0.37
			c0.09,0.08,0.2,0.12,0.34,0.12c0.12,0,0.23-0.03,0.31-0.09c0.08-0.06,0.12-0.15,0.12-0.26c0-0.14-0.07-0.25-0.2-0.33
			c-0.13-0.08-0.35-0.17-0.65-0.26c-0.32-0.11-0.57-0.21-0.77-0.31c-0.2-0.1-0.36-0.24-0.51-0.43c-0.14-0.19-0.22-0.44-0.22-0.75
			c0-0.31,0.08-0.58,0.23-0.8c0.16-0.22,0.37-0.39,0.65-0.51c0.28-0.12,0.59-0.17,0.94-0.17c0.56,0,1.01,0.13,1.35,0.4
			c0.34,0.26,0.52,0.63,0.54,1.11h-1.47c0-0.15-0.05-0.26-0.13-0.33c-0.09-0.07-0.19-0.11-0.33-0.11c-0.1,0-0.18,0.03-0.25,0.09
			c-0.06,0.06-0.1,0.15-0.1,0.25c0,0.09,0.04,0.17,0.11,0.24c0.07,0.07,0.16,0.12,0.26,0.17c0.11,0.05,0.26,0.11,0.47,0.18
			c0.31,0.11,0.56,0.21,0.76,0.31c0.2,0.1,0.37,0.25,0.52,0.43c0.14,0.19,0.22,0.42,0.22,0.71c0,0.29-0.07,0.55-0.22,0.78
			c-0.14,0.23-0.35,0.41-0.63,0.54c-0.27,0.13-0.6,0.2-0.97,0.2C58.31,56.3,57.85,56.16,57.48,55.89z"/>
	</g>
	<g>
		<path class="st1" d="M32.7,18.13c-7.34,1.33-12.32,8.5-10.99,15.84c1.33,7.34,8.5,12.31,15.84,10.99L32.7,18.13z"/>
		<path class="st2" d="M38.07,41.79c7.34-1.33,12.32-8.5,10.99-15.84c-1.33-7.34-8.5-12.31-15.84-10.99L38.07,41.79z"/>
		<path class="st3" d="M23.06,32.14c1.33,7.34,8.5,12.32,15.84,10.99c7.34-1.33,12.31-8.5,10.99-15.84L23.06,32.14z"/>
		<path class="st4" d="M33.49,17.59c-7.34,1.33-12.32,8.5-10.99,15.84c1.33,7.34,8.5,12.31,15.84,10.99L33.49,17.59z"/>
	</g>
</g>
<rect x="0.13" y="-0.1" class="st5" width="71.33" height="71.24"/>
</svg>
